<svg width="259" height="55" viewBox="0 0 259 55" fill="none" xmlns="http://www.w3.org/2000/svg">
<path d="M81.139 40.259C79.4863 40.259 77.8953 40.0493 76.366 39.63C74.8613 39.186 73.665 38.6557 72.777 38.039L74.553 34.524C75.441 35.0913 76.5017 35.56 77.735 35.93C78.9683 36.3 80.2017 36.485 81.435 36.485C82.8903 36.485 83.9387 36.2877 84.58 35.893C85.246 35.4983 85.579 34.968 85.579 34.302C85.579 33.7593 85.357 33.3523 84.913 33.081C84.469 32.785 83.8893 32.563 83.174 32.415C82.4587 32.267 81.657 32.1313 80.769 32.008C79.9057 31.8847 79.03 31.7243 78.142 31.527C77.2787 31.305 76.4893 30.9967 75.774 30.602C75.0587 30.1827 74.479 29.6277 74.035 28.937C73.591 28.2463 73.369 27.3337 73.369 26.199C73.369 24.941 73.7267 23.8557 74.442 22.943C75.1573 22.0057 76.1563 21.2903 77.439 20.797C78.7463 20.279 80.288 20.02 82.064 20.02C83.396 20.02 84.7403 20.168 86.097 20.464C87.4537 20.76 88.576 21.1793 89.464 21.722L87.688 25.237C86.7507 24.6697 85.801 24.2873 84.839 24.09C83.9017 23.868 82.9643 23.757 82.027 23.757C80.621 23.757 79.5727 23.9667 78.882 24.386C78.216 24.8053 77.883 25.3357 77.883 25.977C77.883 26.569 78.105 27.013 78.549 27.309C78.993 27.605 79.5727 27.8393 80.288 28.012C81.0033 28.1847 81.7927 28.3327 82.656 28.456C83.544 28.5547 84.4197 28.715 85.283 28.937C86.1463 29.159 86.9357 29.4673 87.651 29.862C88.391 30.232 88.983 30.7623 89.427 31.453C89.871 32.1437 90.093 33.044 90.093 34.154C90.093 35.3873 89.723 36.4603 88.983 37.373C88.2677 38.2857 87.244 39.001 85.912 39.519C84.58 40.0123 82.989 40.259 81.139 40.259ZM103.141 40.259C101.069 40.259 99.219 39.8273 97.591 38.964C95.9877 38.076 94.7297 36.8673 93.817 35.338C92.9043 33.8087 92.448 32.0697 92.448 30.121C92.448 28.1477 92.9043 26.4087 93.817 24.904C94.7297 23.3747 95.9877 22.1783 97.591 21.315C99.219 20.4517 101.069 20.02 103.141 20.02C105.065 20.02 106.755 20.4147 108.21 21.204C109.69 21.9687 110.812 23.1033 111.577 24.608L108.025 26.68C107.433 25.7427 106.705 25.052 105.842 24.608C105.003 24.164 104.091 23.942 103.104 23.942C101.969 23.942 100.946 24.1887 100.033 24.682C99.1203 25.1753 98.405 25.8907 97.887 26.828C97.369 27.7407 97.11 28.8383 97.11 30.121C97.11 31.4037 97.369 32.5137 97.887 33.451C98.405 34.3637 99.1203 35.0667 100.033 35.56C100.946 36.0533 101.969 36.3 103.104 36.3C104.091 36.3 105.003 36.078 105.842 35.634C106.705 35.19 107.433 34.4993 108.025 33.562L111.577 35.634C110.812 37.114 109.69 38.261 108.21 39.075C106.755 39.8643 105.065 40.259 103.141 40.259ZM115.394 40V20.242H120.019V40H115.394ZM117.725 16.986C116.862 16.986 116.147 16.7147 115.579 16.172C115.037 15.6293 114.765 14.9757 114.765 14.211C114.765 13.4217 115.037 12.768 115.579 12.25C116.147 11.7073 116.862 11.436 117.725 11.436C118.589 11.436 119.292 11.695 119.834 12.213C120.402 12.7063 120.685 13.3353 120.685 14.1C120.685 14.914 120.414 15.6047 119.871 16.172C119.329 16.7147 118.613 16.986 117.725 16.986ZM135.377 40.259C133.181 40.259 131.257 39.8273 129.605 38.964C127.977 38.076 126.706 36.8673 125.794 35.338C124.906 33.8087 124.462 32.0697 124.462 30.121C124.462 28.1477 124.893 26.4087 125.757 24.904C126.645 23.3747 127.853 22.1783 129.383 21.315C130.937 20.4517 132.7 20.02 134.674 20.02C136.598 20.02 138.312 20.4393 139.817 21.278C141.321 22.1167 142.505 23.3007 143.369 24.83C144.232 26.3593 144.664 28.16 144.664 30.232C144.664 30.4293 144.651 30.6513 144.627 30.898C144.627 31.1447 144.614 31.379 144.59 31.601H128.125V28.53H142.148L140.335 29.492C140.359 28.3573 140.125 27.3583 139.632 26.495C139.138 25.6317 138.46 24.9533 137.597 24.46C136.758 23.9667 135.784 23.72 134.674 23.72C133.539 23.72 132.54 23.9667 131.677 24.46C130.838 24.9533 130.172 25.644 129.679 26.532C129.21 27.3953 128.976 28.419 128.976 29.603V30.343C128.976 31.527 129.247 32.5753 129.79 33.488C130.332 34.4007 131.097 35.1037 132.084 35.597C133.07 36.0903 134.205 36.337 135.488 36.337C136.598 36.337 137.597 36.1643 138.485 35.819C139.373 35.4737 140.162 34.931 140.853 34.191L143.332 37.04C142.444 38.076 141.321 38.8777 139.965 39.445C138.633 39.9877 137.103 40.259 135.377 40.259ZM153.999 40L145.526 20.242H150.336L157.625 37.669H155.257L162.805 20.242H167.245L158.772 40H153.999ZM178.881 40.259C176.685 40.259 174.761 39.8273 173.109 38.964C171.481 38.076 170.21 36.8673 169.298 35.338C168.41 33.8087 167.966 32.0697 167.966 30.121C167.966 28.1477 168.397 26.4087 169.261 24.904C170.149 23.3747 171.357 22.1783 172.887 21.315C174.441 20.4517 176.204 20.02 178.178 20.02C180.102 20.02 181.816 20.4393 183.321 21.278C184.825 22.1167 186.009 23.3007 186.873 24.83C187.736 26.3593 188.168 28.16 188.168 30.232C188.168 30.4293 188.155 30.6513 188.131 30.898C188.131 31.1447 188.118 31.379 188.094 31.601H171.629V28.53H185.652L183.839 29.492C183.863 28.3573 183.629 27.3583 183.136 26.495C182.642 25.6317 181.964 24.9533 181.101 24.46C180.262 23.9667 179.288 23.72 178.178 23.72C177.043 23.72 176.044 23.9667 175.181 24.46C174.342 24.9533 173.676 25.644 173.183 26.532C172.714 27.3953 172.48 28.419 172.48 29.603V30.343C172.48 31.527 172.751 32.5753 173.294 33.488C173.836 34.4007 174.601 35.1037 175.588 35.597C176.574 36.0903 177.709 36.337 178.992 36.337C180.102 36.337 181.101 36.1643 181.989 35.819C182.877 35.4737 183.666 34.931 184.357 34.191L186.836 37.04C185.948 38.076 184.825 38.8777 183.469 39.445C182.137 39.9877 180.607 40.259 178.881 40.259ZM203.821 20.02C205.4 20.02 206.806 20.3283 208.039 20.945C209.297 21.5617 210.284 22.5113 210.999 23.794C211.715 25.052 212.072 26.68 212.072 28.678V40H207.447V29.27C207.447 27.5187 207.028 26.2113 206.189 25.348C205.375 24.4847 204.228 24.053 202.748 24.053C201.663 24.053 200.701 24.275 199.862 24.719C199.024 25.163 198.37 25.829 197.901 26.717C197.457 27.5803 197.235 28.678 197.235 30.01V40H192.61V20.242H197.013V25.57L196.236 23.942C196.927 22.684 197.926 21.722 199.233 21.056C200.565 20.3653 202.095 20.02 203.821 20.02ZM225.376 40.259C223.206 40.259 221.528 39.704 220.344 38.594C219.16 37.4593 218.568 35.7943 218.568 33.599V15.876H223.193V33.488C223.193 34.4253 223.428 35.153 223.896 35.671C224.39 36.189 225.068 36.448 225.931 36.448C226.967 36.448 227.831 36.1767 228.521 35.634L229.816 38.927C229.274 39.371 228.608 39.704 227.818 39.926C227.029 40.148 226.215 40.259 225.376 40.259ZM215.312 24.09V20.39H228.484V24.09H215.312ZM239.726 40.259C238.073 40.259 236.482 40.0493 234.953 39.63C233.448 39.186 232.252 38.6557 231.364 38.039L233.14 34.524C234.028 35.0913 235.089 35.56 236.322 35.93C237.555 36.3 238.789 36.485 240.022 36.485C241.477 36.485 242.526 36.2877 243.167 35.893C243.833 35.4983 244.166 34.968 244.166 34.302C244.166 33.7593 243.944 33.3523 243.5 33.081C243.056 32.785 242.476 32.563 241.761 32.415C241.046 32.267 240.244 32.1313 239.356 32.008C238.493 31.8847 237.617 31.7243 236.729 31.527C235.866 31.305 235.076 30.9967 234.361 30.602C233.646 30.1827 233.066 29.6277 232.622 28.937C232.178 28.2463 231.956 27.3337 231.956 26.199C231.956 24.941 232.314 23.8557 233.029 22.943C233.744 22.0057 234.743 21.2903 236.026 20.797C237.333 20.279 238.875 20.02 240.651 20.02C241.983 20.02 243.327 20.168 244.684 20.464C246.041 20.76 247.163 21.1793 248.051 21.722L246.275 25.237C245.338 24.6697 244.388 24.2873 243.426 24.09C242.489 23.868 241.551 23.757 240.614 23.757C239.208 23.757 238.16 23.9667 237.469 24.386C236.803 24.8053 236.47 25.3357 236.47 25.977C236.47 26.569 236.692 27.013 237.136 27.309C237.58 27.605 238.16 27.8393 238.875 28.012C239.59 28.1847 240.38 28.3327 241.243 28.456C242.131 28.5547 243.007 28.715 243.87 28.937C244.733 29.159 245.523 29.4673 246.238 29.862C246.978 30.232 247.57 30.7623 248.014 31.453C248.458 32.1437 248.68 33.044 248.68 34.154C248.68 35.3873 248.31 36.4603 247.57 37.373C246.855 38.2857 245.831 39.001 244.499 39.519C243.167 40.0123 241.576 40.259 239.726 40.259ZM254.143 40.259C253.304 40.259 252.589 39.9753 251.997 39.408C251.405 38.816 251.109 38.076 251.109 37.188C251.109 36.2507 251.405 35.5107 251.997 34.968C252.589 34.4007 253.304 34.117 254.143 34.117C254.982 34.117 255.697 34.4007 256.289 34.968C256.881 35.5107 257.177 36.2507 257.177 37.188C257.177 38.076 256.881 38.816 256.289 39.408C255.697 39.9753 254.982 40.259 254.143 40.259Z" fill="#75B79E"/>
<rect width="55" height="55" rx="27.5" fill="#75B79E"/>
<path fill-rule="evenodd" clip-rule="evenodd" d="M36.648 34.5C33.5805 26.8395 30 24.8205 30 21V16.5H30.75C30.9489 16.5 31.1397 16.421 31.2803 16.2803C31.421 16.1397 31.5 15.9489 31.5 15.75V14.25C31.5 14.0511 31.421 13.8603 31.2803 13.7197C31.1397 13.579 30.9489 13.5 30.75 13.5H23.25C23.0511 13.5 22.8603 13.579 22.7197 13.7197C22.579 13.8603 22.5 14.0511 22.5 14.25V15.75C22.5 15.9489 22.579 16.1397 22.7197 16.2803C22.8603 16.421 23.0511 16.5 23.25 16.5H24V21C24 24.8205 20.4195 26.8395 17.352 34.5C16.3755 36.9375 13.8675 40.5 27 40.5C40.1325 40.5 37.6245 36.9375 36.648 34.5V34.5ZM34.2225 37.1265C33.1695 37.4415 31.074 37.8 27 37.8C22.926 37.8 20.8305 37.4415 19.7775 37.1265C19.404 37.0155 19.2585 36.582 19.3905 36.1845C19.7205 35.1795 20.343 33.4425 21.507 31.503C24.351 26.7645 27.3015 32.2485 29.757 32.2485C32.2125 32.2485 31.539 29.907 32.493 31.503C33.3709 32.9797 34.0808 34.5499 34.6095 36.1845C34.7415 36.582 34.596 37.014 34.2225 37.1265V37.1265Z" fill="white"/>
</svg>
