<svg width="55" height="55" viewBox="0 0 55 55" fill="none" xmlns="http://www.w3.org/2000/svg">
<rect width="55" height="55" rx="27.5" fill="#75B79E"/>
<path fill-rule="evenodd" clip-rule="evenodd" d="M36.648 34.5C33.5805 26.8395 30 24.8205 30 21V16.5H30.75C30.9489 16.5 31.1397 16.421 31.2803 16.2803C31.421 16.1397 31.5 15.9489 31.5 15.75V14.25C31.5 14.0511 31.421 13.8603 31.2803 13.7197C31.1397 13.579 30.9489 13.5 30.75 13.5H23.25C23.0511 13.5 22.8603 13.579 22.7197 13.7197C22.579 13.8603 22.5 14.0511 22.5 14.25V15.75C22.5 15.9489 22.579 16.1397 22.7197 16.2803C22.8603 16.421 23.0511 16.5 23.25 16.5H24V21C24 24.8205 20.4195 26.8395 17.352 34.5C16.3755 36.9375 13.8675 40.5 27 40.5C40.1325 40.5 37.6245 36.9375 36.648 34.5V34.5ZM34.2225 37.1265C33.1695 37.4415 31.074 37.8 27 37.8C22.926 37.8 20.8305 37.4415 19.7775 37.1265C19.404 37.0155 19.2585 36.582 19.3905 36.1845C19.7205 35.1795 20.343 33.4425 21.507 31.503C24.351 26.7645 27.3015 32.2485 29.757 32.2485C32.2125 32.2485 31.539 29.907 32.493 31.503C33.3709 32.9797 34.0808 34.5499 34.6095 36.1845C34.7415 36.582 34.596 37.014 34.2225 37.1265V37.1265Z" fill="white"/>
</svg>
